<svg xmlns="http://www.w3.org/2000/svg" xmlns:xlink="http://www.w3.org/1999/xlink" width="300" zoomAndPan="magnify" viewBox="0 0 224.87999 74.999997" height="100" preserveAspectRatio="xMidYMid meet" version="1.0"><defs><g/></defs><g fill="#0d0630" fill-opacity="1"><g transform="translate(58.137577, 51.662473)"><g><path d="M 7.546875 -3.84375 L 18.453125 -3.84375 L 18.453125 0 L 3.3125 0 L 3.3125 -25.171875 L 7.546875 -25.171875 Z M 7.546875 -3.84375 "/></g></g></g><g fill="#0d0630" fill-opacity="1"><g transform="translate(77.342686, 51.662473)"><g><path d="M 21.296875 -21.359375 L 7.546875 -21.359375 L 7.546875 -14.5625 L 19.859375 -14.5625 L 19.859375 -10.75 L 7.546875 -10.75 L 7.546875 -3.8125 L 21.71875 -3.8125 L 21.71875 0 L 3.3125 0 L 3.3125 -25.171875 L 21.296875 -25.171875 Z M 21.296875 -21.359375 "/></g></g></g><g fill="#0d0630" fill-opacity="1"><g transform="translate(100.935484, 51.662473)"><g><path d="M 3.3125 -25.171875 L 13.625 -25.171875 C 17.394531 -25.171875 20.507812 -23.984375 22.96875 -21.609375 C 25.425781 -19.242188 26.65625 -16.238281 26.65625 -12.59375 C 26.65625 -8.945312 25.421875 -5.9375 22.953125 -3.5625 C 20.484375 -1.1875 17.34375 0 13.53125 0 L 3.3125 0 Z M 7.546875 -21.359375 L 7.546875 -3.8125 L 13.734375 -3.8125 C 16.203125 -3.8125 18.257812 -4.628906 19.90625 -6.265625 C 21.550781 -7.910156 22.375 -10.003906 22.375 -12.546875 C 22.375 -15.085938 21.523438 -17.191406 19.828125 -18.859375 C 18.140625 -20.523438 16.050781 -21.359375 13.5625 -21.359375 Z M 7.546875 -21.359375 "/></g></g></g><g fill="#0d0630" fill-opacity="1"><g transform="translate(128.808063, 51.662473)"><g><path d="M 20.53125 -12.375 L 24.25 -12.375 L 24.25 -3.09375 C 22.945312 -2.113281 21.414062 -1.320312 19.65625 -0.71875 C 17.894531 -0.113281 16.160156 0.1875 14.453125 0.1875 C 10.742188 0.1875 7.609375 -1.039062 5.046875 -3.5 C 2.492188 -5.957031 1.21875 -8.984375 1.21875 -12.578125 C 1.21875 -16.179688 2.515625 -19.195312 5.109375 -21.625 C 7.703125 -24.0625 10.90625 -25.28125 14.71875 -25.28125 C 16.488281 -25.28125 18.226562 -24.960938 19.9375 -24.328125 C 21.65625 -23.691406 23.140625 -22.835938 24.390625 -21.765625 L 21.984375 -18.625 C 19.921875 -20.550781 17.5 -21.515625 14.71875 -21.515625 C 12.144531 -21.515625 9.972656 -20.648438 8.203125 -18.921875 C 6.429688 -17.191406 5.546875 -15.082031 5.546875 -12.59375 C 5.546875 -10.070312 6.4375 -7.945312 8.21875 -6.21875 C 10.007812 -4.5 12.1875 -3.640625 14.75 -3.640625 C 16.6875 -3.640625 18.613281 -4.210938 20.53125 -5.359375 Z M 20.53125 -12.375 "/></g></g></g><g fill="#0d0630" fill-opacity="1"><g transform="translate(155.745567, 51.662473)"><g><path d="M 21.296875 -21.359375 L 7.546875 -21.359375 L 7.546875 -14.5625 L 19.859375 -14.5625 L 19.859375 -10.75 L 7.546875 -10.75 L 7.546875 -3.8125 L 21.71875 -3.8125 L 21.71875 0 L 3.3125 0 L 3.3125 -25.171875 L 21.296875 -25.171875 Z M 21.296875 -21.359375 "/></g></g></g><g fill="#0d0630" fill-opacity="1"><g transform="translate(179.338365, 51.662473)"><g><path d="M 19.28125 0 L 14.671875 -7.625 C 14.429688 -7.601562 14.050781 -7.59375 13.53125 -7.59375 L 7.546875 -7.59375 L 7.546875 0 L 3.3125 0 L 3.3125 -25.171875 L 13.53125 -25.171875 C 16.738281 -25.171875 19.226562 -24.421875 21 -22.921875 C 22.78125 -21.429688 23.671875 -19.316406 23.671875 -16.578125 C 23.671875 -14.566406 23.21875 -12.863281 22.3125 -11.46875 C 21.414062 -10.082031 20.128906 -9.066406 18.453125 -8.421875 L 24.09375 0 Z M 7.546875 -11.40625 L 13.53125 -11.40625 C 17.601562 -11.40625 19.640625 -13.09375 19.640625 -16.46875 C 19.640625 -19.726562 17.601562 -21.359375 13.53125 -21.359375 L 7.546875 -21.359375 Z M 7.546875 -11.40625 "/></g></g></g><path stroke-linecap="butt" transform="matrix(0.674404, 0, 0, 0.674404, 19.301916, 16.358428)" fill="none" stroke-linejoin="miter" d="M 12.50937 52.47253 L 12.50937 -0.386671 L 8.501199 -0.386671 L 8.501199 55.999952 L 51.22413 55.999952 L 51.22413 52.47253 Z M 12.50937 52.47253 " stroke="#1a7de5" stroke-width="2.185776" stroke-opacity="1" stroke-miterlimit="4"/><path stroke-linecap="butt" transform="matrix(-0.674404, -0.000000000000000083, 0.000000000000000083, -0.674404, 53.875642, 58.633993)" fill="none" stroke-linejoin="miter" d="M 12.512006 52.472877 L 12.512006 -0.386323 L 8.498043 -0.386323 L 8.498043 56.000299 L 51.226766 56.000299 L 51.226766 52.472877 Z M 12.512006 52.472877 " stroke="#1a7de5" stroke-width="2.185776" stroke-opacity="1" stroke-miterlimit="4"/></svg>